<?xml version="1.0" encoding="UTF-8"?>
<svg id="Icon" xmlns="http://www.w3.org/2000/svg" version="1.1" viewBox="0 0 911 953">
  <!-- Generator: Adobe Illustrator 29.1.0, SVG Export Plug-In . SVG Version: 2.1.0 Build 142)  -->
  <defs>
    <style>
      .st0 {
        fill: #fff;
      }

      .st1 {
        fill: #767677;
      }
    </style>
  </defs>
  <path class="st1" d="M317.4,100.8L0,370.3v494.2h634.9v-494.2L317.4,100.8Z"/>
  <path class="st0" d="M281.7,422.9v334.5h60.2v-74.9h110.7v74.9h60.2v-334.5h-60.2v74.9h-110.7v-74.9h-60.2,0ZM452.6,558v64.2h-110.7v-64.2h110.7Z"/>
  <polygon class="st0" points="117.6 480.7 180.9 480.7 180.9 698.7 117.6 698.7 117.6 758.9 241.1 758.9 241.1 420.5 117.6 420.5 117.6 480.7"/>
  <polygon class="st1" points="911 437.4 911 797.4 787.7 797.4 634.9 617.4 787.7 437.5 911 437.5 911 437.4"/>
</svg>